#!OML:ASF Y:\EmotionMaleHayes\Project 1\Capture day 1\Session 1\Male1.ASF
:FULLY-SPECIFIED
:DEGREES
1141
root 47.0652 16.86 -9.96135 357.703 4.22839 357.373
lowerback 9.13345 2.27962 3.5223
upperback 2.88636 3.38365 1.48153
thorax -2.004 1.68605 -0.802107
lowerneck -21.1614 -1.85969 -0.000516551
upperneck 26.1482 -3.90171 4.16451
head 12.2542 -1.15582 0.929884
rclavicle 1.61016e-014 -3.97569e-016
rhumerus -29.0685 14.4096 -87.7892
rradius 48.1594
rwrist -3.16746
rhand -12.2308 -28.7912
rfingers 7.12502
rthumb 13.8346 -58.3111
lclavicle 1.61016e-014 -3.97569e-016
lhumerus -42.4043 -0.557691 88.0307
lradius 27.9179
lwrist -13.6756
lhand -9.32314 -22.9329
lfingers 7.12502
lthumb 16.6354 6.37419
rfemur 7.42047 -9.2849 27.7384
rtibia 6.95086
rfoot -17.3994 6.15978
rtoes 25.8807
lfemur -13.6874 8.83285 -10.2203
ltibia 59.0881
lfoot -8.02618 4.70155
ltoes -11.9431
1142
root 47.0912 16.858 -9.84797 357.61 3.66147 357.152
lowerback 9.3043 2.4336 3.91975
upperback 2.91815 3.63019 1.47928
thorax -2.03013 1.80849 -1.05765
lowerneck -21.1433 -1.9166 -0.136785
upperneck 26.1239 -3.92951 4.15214
head 12.2436 -1.18459 0.943425
rclavicle 5.31252e-014 -1.03368e-014
rhumerus -28.4454 15.3497 -87.6145
rradius 49.0594
rwrist -3.4451
rhand -12.1283 -29.7814
rfingers 7.12502
rthumb 13.9334 -59.2945
lclavicle 5.31252e-014 -1.03368e-014
lhumerus -42.404 0.095306 87.5001
lradius 27.6365
lwrist -14.4226
lhand -9.06326 -23.4911
lfingers 7.12502
lthumb 16.8855 5.79485
rfemur 7.94176 -9.11985 27.9325
rtibia 7.09794
rfoot -17.79 5.9928
rtoes 19.5899
lfemur -14.676 8.51161 -10.1354
ltibia 58.0842
lfoot -8.33492 4.66537
ltoes -12.4979
1143
root 47.1217 16.8524 -9.73275 357.547 3.36902 357.129
lowerback 9.40295 2.49085 4.12435
upperback 2.96501 3.72636 1.4263
thorax -2.01436 1.85733 -1.23915
lowerneck -21.2197 -1.91153 -0.0594066
upperneck 26.1965 -3.90194 3.97966
head 12.2803 -1.18541 0.869735
rclavicle -5.48646e-014 -9.54166e-015
rhumerus -27.6316 16.1373 -87.3749
rradius 49.6145
rwrist -3.58965
rhand -12.2378 -30.124
rfingers 7.12502
rthumb 13.8279 -59.6444
lclavicle -5.48646e-014 -9.54166e-015
lhumerus -42.4656 0.20605 87.2756
lradius 27.5363
lwrist -14.4218
lhand -9.23678 -23.6645
lfingers 7.12502
lthumb 16.7185 5.63555
rfemur 8.4817 -9.18442 27.7719
rtibia 7.23025
rfoot -18.3209 5.87274
rtoes 13.2459
lfemur -15.7321 8.06385 -10.3465
ltibia 56.9675
lfoot -8.33971 4.8024
ltoes -15.4011
1144
root 47.1391 16.8489 -9.60792 357.396 3.2342 357.271
lowerback 9.49882 2.50344 3.96773
upperback 3.05395 3.72918 1.38146
thorax -1.98201 1.86045 -1.20084
lowerneck -21.2349 -1.84843 0.063583
upperneck 26.2079 -3.79059 3.76518
head 12.2765 -1.15241 0.786352
rclavicle -3.01656e-014 -9.14409e-015
rhumerus -26.4942 16.2825 -87.0855
rradius 49.5858
rwrist -3.25718
rhand -12.5682 -29.5429
rfingers 7.12502
rthumb 13.5094 -59.0847
lclavicle -3.01656e-014 -9.14409e-015
lhumerus -42.5561 -0.0760309 87.2796
lradius 27.4472
lwrist -14.1269
lhand -9.69405 -23.5961
lfingers 7.12502
lthumb 16.2782 5.74059
rfemur 9.35328 -8.9484 27.5357
rtibia 6.93087
rfoot -18.6096 5.74967
rtoes 11.6255
lfemur -16.5305 7.57181 -10.6382
ltibia 55.6139
lfoot -8.74549 4.79974
ltoes -15.1503
1145
root 47.1639 16.8449 -9.4929 357.375 2.72479 357.324
lowerback 9.61789 2.61751 4.06054
upperback 3.07621 3.89128 1.2928
thorax -2.00392 1.94105 -1.366
lowerneck -21.1684 -1.82742 -0.0578314
upperneck 26.1121 -3.73046 3.82605
head 12.2276 -1.13286 0.839626
rclavicle -5.52124e-014 -1.31198e-014
rhumerus -25.3867 16.3669 -86.8626
rradius 49.5714
rwrist -3.01038
rhand -12.786 -29.3308
rfingers 7.12502
rthumb 13.2995 -58.8865
lclavicle -5.52124e-014 -1.31198e-014
lhumerus -42.5398 0.0816803 86.9981
lradius 27.1802
lwrist -14.5515
lhand -9.96446 -23.6322
lfingers 7.12502
lthumb 16.0179 5.72567
rfemur 9.89682 -8.30992 27.4987
rtibia 6.80668
rfoot -18.7215 5.83823
rtoes 13.1122
lfemur -17.389 7.36618 -10.8726
ltibia 54.1296
lfoot -9.30297 5.13511
ltoes -14.3397
1146
root 47.1887 16.8395 -9.38023 357.37 2.14728 357.162
lowerback 9.73303 2.70563 4.40244
upperback 3.11188 4.04311 1.25137
thorax -1.99471 2.01751 -1.61911
lowerneck -21.1673 -1.77117 -0.21028
upperneck 26.0418 -3.63175 3.95352
head 12.2032 -1.08886 0.929416
rclavicle 3.8763e-015 2.78299e-015
rhumerus -24.1119 16.1679 -86.6629
rradius 49.3784
rwrist -2.48765
rhand -12.6809 -29.7174
rfingers 7.12502
rthumb 13.4008 -59.2664
lclavicle 3.8763e-015 2.78299e-015
lhumerus -42.4484 0.379212 86.6262
lradius 26.8862
lwrist -15.0723
lhand -9.99885 -23.8321
lfingers 7.12502
lthumb 15.9848 5.52837
rfemur 10.3322 -7.83537 27.6726
rtibia 6.82591
rfoot -18.8189 6.11358
rtoes 15.6572
lfemur -18.2157 7.2433 -10.8124
ltibia 52.521
lfoot -10.0538 5.45673
ltoes -10.5445
1147
root 47.2054 16.8304 -9.26148 357.318 1.74648 356.897
lowerback 9.88134 2.76123 4.85295
upperback 3.12913 4.1647 1.17095
thorax -2.0116 2.07844 -1.97217
lowerneck -21.1425 -1.73484 -0.0768996
upperneck 25.954 -3.62369 3.95748
head 12.1615 -1.07347 0.909179
rclavicle 4.05521e-014 -2.70347e-014
rhumerus -22.9814 15.2712 -86.5936
rradius 49.2063
rwrist -1.43459
rhand -12.3197 -29.7731
rfingers 7.12502
rthumb 13.7489 -59.2988
lclavicle 4.05521e-014 -2.70347e-014
lhumerus -42.4692 -0.122069 86.4902
lradius 26.7615
lwrist -14.7409
lhand -10.019 -24.0196
lfingers 7.12502
lthumb 15.9653 5.34242
rfemur 10.8829 -7.76682 27.8576
rtibia 6.78793
rfoot -18.829 6.76604
rtoes 17.7997
lfemur -18.9341 7.07433 -10.5665
ltibia 50.7784
lfoot -10.6696 5.57705
ltoes -8.71363
1148
root 47.216 16.8179 -9.13807 357.237 1.24608 356.576
lowerback 10.0519 2.8566 5.24312
upperback 3.13772 4.33723 1.12853
thorax -2.05105 2.16364 -2.25979
lowerneck -21.0592 -1.79244 0.380869
upperneck 25.7884 -3.7364 3.55434
head 12.0636 -1.13696 0.661013
rclavicle 2.61899e-014 1.11319e-014
rhumerus -21.8208 15.0199 -86.5553
rradius 48.7348
rwrist -1.07622
rhand -12.1532 -29.273
rfingers 7.12502
rthumb 13.9093 -58.7878
lclavicle 2.61899e-014 1.11319e-014
lhumerus -42.4968 -0.361943 86.1955
lradius 26.6217
lwrist -14.6561
lhand -9.94469 -24.2188
lfingers 7.12502
lthumb 16.0369 5.13753
rfemur 11.5338 -7.17549 28.3308
rtibia 6.61459
rfoot -19.0052 6.84376
rtoes 18.3684
lfemur -19.4715 7.04908 -10.2095
ltibia 48.8363
lfoot -10.8418 5.89084
ltoes -11.6912
1149
root 47.2308 16.8058 -9.01384 357.215 0.618553 356.275
lowerback 10.0557 2.96317 5.40387
upperback 3.20947 4.49461 1.26805
thorax -1.9651 2.24495 -2.21813
lowerneck -21.2532 -1.58304 0.212119
upperneck 25.9873 -3.34114 3.39127
head 12.1703 -0.99396 0.693218
rclavicle 1.66731e-014 -9.34288e-015
rhumerus -20.5301 15.2185 -86.3154
rradius 48.2336
rwrist -1.10057
rhand -12.1719 -29.1976
rfingers 7.12502
rthumb 13.8914 -58.7137
lclavicle 1.66731e-014 -9.34288e-015
lhumerus -42.3995 0.145871 85.876
lradius 26.3705
lwrist -15.1912
lhand -9.88079 -24.2907
lfingers 7.12502
lthumb 16.0984 5.06065
rfemur 12.14 -5.76547 29.155
rtibia 6.40183
rfoot -19.7251 5.58981
rtoes 15.771
lfemur -19.913 7.04706 -9.87181
ltibia 46.6628
lfoot -10.3132 6.20431
ltoes -14.6681
1150
root 47.2567 16.7952 -8.88989 357.239 0.230391 356.279
lowerback 9.98369 3.00366 5.44028
upperback 3.2848 4.54323 1.26918
thorax -1.84049 2.27398 -2.23416
lowerneck -21.3725 -1.45107 -0.045442
upperneck 26.0843 -3.10736 3.52373
head 12.2341 -0.895171 0.825657
rclavicle -3.16565e-014 -1.45113e-014
rhumerus -19.9615 16.447 -86.0547
rradius 48.9711
rwrist -1.94501
rhand -12.3348 -29.7374
rfingers 7.12502
rthumb 13.7343 -59.2641
lclavicle -3.16565e-014 -1.45113e-014
lhumerus -42.2888 0.300764 85.756
lradius 26.1532
lwrist -15.3914
lhand -9.90371 -24.1924
lfingers 7.12502
lthumb 16.0764 5.16073
rfemur 12.6406 -6.54302 28.5653
rtibia 6.43431
rfoot -20.3663 6.42697
rtoes 12.2655
lfemur -20.3441 6.58702 -10.0108
ltibia 44.287
lfoot -9.85925 6.57539
ltoes -14.9481
1151
root 47.288 16.7863 -8.7651 357.242 0.0143152 356.521
lowerback 9.97686 3.01898 5.43797
upperback 3.33366 4.55594 1.10412
thorax -1.77119 2.28398 -2.4019
lowerneck -21.1034 -1.61756 0.382758
upperneck 25.671 -3.38066 3.20942
head 12.0099 -1.02755 0.588721
rclavicle -3.762e-014 2.5842e-015
rhumerus -19.302 17.1278 -85.8623
rradius 49.4923
rwrist -2.35214
rhand -12.2491 -29.6539
rfingers 7.12502
rthumb 13.8169 -59.175
lclavicle -3.762e-014 2.5842e-015
lhumerus -42.1304 0.407172 85.4831
lradius 25.8517
lwrist -15.6642
lhand -9.85088 -24.2537
lfingers 7.12502
lthumb 16.1272 5.09528
rfemur 13.2796 -7.44319 27.6083
rtibia 6.23975
rfoot -20.4662 7.55332
rtoes 11.0621
lfemur -20.6629 5.89512 -10.5021
ltibia 41.7364
lfoot -10.6747 7.05819
ltoes -11.5963
1152
root 47.3146 16.7794 -8.63567 357.224 -0.237463 356.604
lowerback 9.97274 3.05215 5.56325
upperback 3.37285 4.60604 0.968881
thorax -1.7022 2.31279 -2.61359
lowerneck -21.0841 -1.39278 0.232561
upperneck 25.6913 -3.02806 3.27899
head 12.0111 -0.875825 0.698196
rclavicle 3.40916e-014 -1.09332e-014
rhumerus -18.3041 16.8278 -85.7604
rradius 49.0658
rwrist -2.0714
rhand -12.1629 -29.3539
rfingers 7.12502
rthumb 13.9 -58.8694
lclavicle 3.40916e-014 -1.09332e-014
lhumerus -41.9861 0.464524 85.1183
lradius 25.5661
lwrist -15.8633
lhand -9.6958 -24.341
lfingers 7.12502
lthumb 16.2766 4.99579
rfemur 13.8434 -6.19535 27.9254
rtibia 6.12972
rfoot -20.6507 6.50902
rtoes 11.8839
lfemur -20.8324 5.54297 -10.7575
ltibia 38.9906
lfoot -10.775 7.5394
ltoes -11.9369
1153
root 47.3384 16.7691 -8.5029 357.261 -0.612588 356.409
lowerback 9.91865 3.10696 5.92623
upperback 3.38503 4.70686 0.906962
thorax -1.61505 2.36757 -2.88335
lowerneck -21.204 -1.42599 0.223166
upperneck 25.8329 -3.05591 3.19843
head 12.0891 -0.896342 0.665131
rclavicle -8.94531e-015 -1.92821e-014
rhumerus -17.1575 15.7904 -85.7872
rradius 48.3234
rwrist -1.06567
rhand -12.0905 -29.2514
rfingers 7.12502
rthumb 13.9698 -58.762
lclavicle -8.94531e-015 -1.92821e-014
lhumerus -41.9409 0.238719 84.8965
lradius 25.4312
lwrist -15.7515
lhand -9.53681 -24.3133
lfingers 7.12502
lthumb 16.4296 5.01095
rfemur 14.5661 -6.19367 27.8461
rtibia 5.78087
rfoot -20.6469 7.1838
rtoes 13.202
lfemur -20.9776 5.39194 -10.608
ltibia 36.117
lfoot -10.5774 8.0497
ltoes -12.4197
1154
root 47.3562 16.7508 -8.36837 357.426 -1.12897 356.236
lowerback 9.70199 3.22082 5.97471
upperback 3.3981 4.84835 1.01245
thorax -1.47472 2.44212 -2.79846
lowerneck -21.2918 -1.38475 0.0332781
upperneck 25.835 -2.88641 3.0489
head 12.103 -0.859558 0.668372
rclavicle -1.31198e-014 -2.68359e-014
rhumerus -16.8878 17.347 -85.4494
rradius 49.2016
rwrist -2.60195
rhand -13.1952 -30.3854
rfingers 7.12502
rthumb 12.9051 -59.9664
lclavicle -1.31198e-014 -2.68359e-014
lhumerus -41.841 0.618338 84.6838
lradius 25.1901
lwrist -16.2101
lhand -9.57488 -24.2467
lfingers 7.12502
lthumb 16.393 5.08061
rfemur 14.7818 -5.53927 28.1216
rtibia 6.0869
rfoot -21.2689 7.18986
rtoes 13.1401
lfemur -21.115 5.18868 -10.4021
ltibia 33.1067
lfoot -10.3737 8.5408
ltoes -10.3543
